HIERARCHY
ROOT hip
{
	OFFSET 0.000000 0.000000 0.000000 
	CHANNELS 6 Xposition Yposition Zposition Xrotation Zrotation Yrotation
	JOINT abdomen
	{
		OFFSET 0.000000 3.402643 0.000000 
		CHANNELS 3 Xrotation Zrotation Yrotation
		JOINT chest
		{
			OFFSET 0.000000 8.438565 -0.680529 
			CHANNELS 3 Xrotation Zrotation Yrotation
			JOINT neck
			{
				OFFSET 0.000000 10.207942 -0.272212 
				CHANNELS 3 Xrotation Zrotation Yrotation
				JOINT head
				{
					OFFSET 0.000000 3.130431 0.000000 
					CHANNELS 3 Xrotation Zrotation Yrotation
					End Site
					{
						OFFSET 0.000000 3.130435 0.000000 
					}
				}
			}
			JOINT lCollar
			{
				OFFSET 3.470700 6.669187 -0.816635 
				CHANNELS 3 Yrotation Zrotation Xrotation
				JOINT lShldr
				{
					OFFSET 3.198488 0.000000 0.000000 
					CHANNELS 3 Zrotation Yrotation Xrotation
					JOINT lForeArm
					{
						OFFSET 10.139888 0.000000 0.000000 
						CHANNELS 3 Yrotation Zrotation Xrotation
						JOINT lHand
						{
							OFFSET 8.370511 0.000000 0.000000 
							CHANNELS 3 Zrotation Yrotation Xrotation
							End Site
							{
								OFFSET 4.083176 0.000000 0.000000 
							}
						}
					}
				}
			}
			JOINT rCollar
			{
				OFFSET -3.470700 6.669187 -0.816635 
				CHANNELS 3 Yrotation Zrotation Xrotation
				JOINT rShldr
				{
					OFFSET -3.198488 0.000000 0.000000 
					CHANNELS 3 Zrotation Yrotation Xrotation
					JOINT rForeArm
					{
						OFFSET -10.139888 0.000000 0.000000 
						CHANNELS 3 Yrotation Zrotation Xrotation
						JOINT rHand
						{
							OFFSET -8.370511 0.000000 0.000000 
							CHANNELS 3 Zrotation Yrotation Xrotation
							End Site
							{
								OFFSET -4.083176 0.000000 0.000000 
							}
						}
					}
				}
			}
		}
	}
	JOINT lThigh
	{
		OFFSET 5.308129 -1.633274 1.361059 
		CHANNELS 3 Xrotation Zrotation Yrotation
		JOINT lShin
		{
			OFFSET -2.041588 -20.007561 0.000000 
			CHANNELS 3 Xrotation Zrotation Yrotation
			JOINT lFoot
			{
				OFFSET 0.000000 -19.190928 -1.224953 
				CHANNELS 3 Xrotation Yrotation Zrotation
				End Site
				{
					OFFSET 0.000000 -2.449906 4.627600 
				}
			}
		}
	}
	JOINT rThigh
	{
		OFFSET -5.308129 -1.633274 1.361059 
		CHANNELS 3 Xrotation Zrotation Yrotation
		JOINT rShin
		{
			OFFSET 2.041588 -20.007561 0.000000 
			CHANNELS 3 Xrotation Zrotation Yrotation
			JOINT rFoot
			{
				OFFSET 0.000000 -19.190928 -1.224953 
				CHANNELS 3 Xrotation Yrotation Zrotation
				End Site
				{
					OFFSET 0.000000 -2.449906 4.627600 
				}
			}
		}
	}
}
MOTION
Frames: 20
Frame Time: 0.033333
-4.236802 34.451683 -4.455872 2.070313 -0.039062 94.267548 30.654299 -9.707031 -4.669615 -38.320313 8.300782 9.220159 -8.603516 0.000000 0.000000 13.066406 4.277344 18.994873 1.992188 -2.001953 0.000341 -3.955078 -13.535156 6.777344 2.695313 -1.796875 0.029603 1.748047 -3.291016 0.058033 -2.001953 1.992188 0.000000 11.523438 5.166016 -3.172947 0.107422 1.767578 0.029297 -1.787109 3.261719 0.048828 6.780904 12.845819 20.029963 -2.171749 -4.126401 0.039888 -0.465100 -0.037173 -0.066572 13.971745 -14.061181 -28.945911 -1.814024 4.081236 -0.050665 7.499998 -0.004749 -0.001454 
-4.181371 34.443771 -4.499073 2.109375 -0.097656 94.511703 30.654299 -9.707031 -4.669615 -38.251953 8.408203 9.464318 -8.603516 0.000000 0.000000 12.958983 4.072266 19.199217 1.992188 -2.001953 0.000341 -3.613281 -13.789063 13.281251 2.714844 -1.796875 0.029297 1.748047 -3.291016 0.058033 -2.001953 1.992188 0.000000 12.441407 5.185547 -6.190524 2.783203 1.767578 0.019230 -1.787109 3.261719 0.048828 6.686148 12.887546 19.613825 -1.996567 -4.127565 0.017147 -0.639758 -0.055763 -0.073837 13.898412 -14.088677 -29.215731 -1.611090 4.102837 -0.026492 7.607177 -0.051156 -0.035984 
-4.116965 34.436874 -4.544394 2.148438 -0.224609 94.794922 30.654299 -9.707031 -4.669615 -38.359375 8.476563 9.571751 -8.603516 0.000000 0.000000 12.958983 3.925781 19.521484 1.992188 -2.001953 0.000341 -3.144531 -13.945313 20.712137 2.714844 -1.796875 0.029297 1.748047 -3.291016 0.058033 -2.001953 1.992188 0.000000 13.046875 5.244141 -9.619140 5.039063 1.767578 0.009464 -1.787109 3.261719 0.048828 6.502707 12.919530 19.201565 -1.818940 -4.133799 0.014101 -0.874729 -0.069539 -0.058404 13.718630 -14.120792 -29.456976 -1.259407 4.091776 0.019311 7.685457 -0.035049 -0.010668 
-4.056580 34.433300 -4.581875 2.167969 -0.410156 95.038994 30.654299 -9.707031 -4.669615 -38.515629 8.525391 9.511719 -8.603516 0.000000 0.000000 12.988282 3.857422 19.903002 1.992188 -2.001953 0.000341 -2.568359 -13.994140 28.181231 2.714844 -1.796875 0.029297 1.748047 -3.291016 0.058033 -2.001953 1.992188 0.000000 13.271484 5.351563 -13.094793 6.552734 1.767578 0.009766 -1.787109 3.261719 0.048828 6.276006 12.916462 18.901897 -1.720725 -4.132618 0.026350 -0.991304 -0.080711 -0.062846 13.416576 -14.111479 -29.601849 -0.825803 4.091654 0.080286 7.704913 -0.047445 -0.014433 
-4.007365 34.433174 -4.606068 2.167969 -0.566406 95.214745 30.654299 -9.707031 -4.669615 -38.632813 8.496094 9.316406 -8.603516 0.000000 0.000000 13.066407 3.857422 20.137377 1.992188 -2.001953 0.000341 -2.080078 -13.984375 35.390625 2.714844 -1.796875 0.029297 1.748047 -3.291016 0.058033 -2.001953 1.992188 0.000000 13.222657 5.537110 -16.415071 7.148438 1.767578 0.009464 -1.787109 3.261719 0.048828 6.117472 12.913422 18.843775 -1.750053 -4.132246 -0.010546 -0.838683 -0.034276 -0.034231 13.087224 -14.117117 -29.589657 -0.352074 4.079057 0.056541 7.617172 -0.014158 -0.004319 
-3.967126 34.432793 -4.616524 2.167969 -0.644531 95.263672 30.654299 -9.707031 -4.669615 -38.603516 8.417969 9.171350 -8.603516 0.000000 0.000000 13.066406 3.984375 20.069040 1.992188 -2.001953 0.000341 -1.767578 -13.916016 42.382813 2.714844 -1.796875 0.029297 1.748047 -3.291016 0.058033 -2.001953 1.992188 0.000000 12.841797 5.673828 -19.637707 6.582031 1.767578 0.009464 -1.787109 3.261719 0.048828 6.080734 12.857535 18.933289 -1.858746 -4.126114 0.036261 -0.407434 -0.033668 -0.044279 12.859540 -14.110553 -29.510860 0.086525 4.103249 0.117740 7.490226 -0.009917 -0.003037 
-3.927575 34.427814 -4.615630 2.138672 -0.566406 95.175781 30.654299 -9.707031 -4.669615 -38.437500 8.281250 9.023438 -8.603516 0.000000 0.000000 13.115233 4.277344 19.541016 1.992188 -2.001953 0.000341 -1.660156 -13.886784 49.304432 2.714844 -1.796875 0.029297 1.748047 -3.291016 0.058033 -2.001953 1.992188 0.000000 12.089844 5.732421 -22.850586 4.716797 1.767578 0.029297 -1.787109 3.261719 0.048828 6.229877 12.831949 19.165361 -1.996335 -4.127322 0.026902 0.104344 -0.003139 -0.063833 12.737497 -14.147670 -29.320875 0.447118 4.069251 0.125360 7.353421 -0.038349 -0.001598 
-3.880762 34.415558 -4.606731 2.109375 -0.419919 94.892479 30.654299 -9.707031 -4.669615 -38.183594 8.085938 8.907624 -8.603516 0.000000 0.000000 13.154297 4.697266 18.428535 1.992188 -2.001953 0.000341 -1.767578 -13.808594 56.318356 2.714844 -1.796875 0.029297 1.748047 -3.291016 0.058033 -2.001953 1.992188 0.000000 11.152345 5.683594 -26.083019 1.865235 1.767578 0.019230 -1.787109 3.261719 0.048828 6.509656 12.867656 19.482836 -2.091201 -4.112313 0.053113 0.523947 -0.038703 -0.066608 12.781924 -14.179146 -29.100662 0.652292 4.071169 0.159927 7.255790 -0.032874 0.000058 
-3.823415 34.397812 -4.593277 2.031250 -0.283203 94.531204 30.654299 -9.707031 -4.669615 -37.958984 7.939454 8.789063 -8.603516 0.000000 0.000000 13.222657 5.136719 16.690327 1.992188 -2.001953 0.000341 -1.972656 -13.798829 63.369144 2.714844 -1.796875 0.029297 1.748047 -3.291016 0.058033 -2.001953 1.992188 0.000000 10.234375 5.498047 -29.344767 -1.123047 1.767578 0.029297 -1.787109 3.261719 0.048828 6.860913 12.945002 19.809668 -2.191189 -4.126439 0.060865 0.750272 -0.036693 -0.044899 12.894335 -14.187189 -28.723381 0.602933 4.068707 0.136848 7.275262 -0.040588 -0.012513 
-3.756775 34.379810 -4.578646 1.953125 -0.175781 94.091766 30.654299 -9.707031 -4.669615 -37.783203 7.841796 8.761098 -8.603516 0.000000 0.000000 13.222657 5.410157 14.385686 1.992188 -2.001953 0.000341 -2.255859 -13.847656 70.427353 2.714844 -1.796875 0.029297 1.748047 -3.291016 0.058033 -2.001953 1.992188 0.000000 9.677734 5.117188 -32.617188 -3.310547 1.767578 0.029297 -1.787109 3.261719 0.048828 7.253172 13.034756 20.259850 -2.266734 -4.131609 0.027785 0.799973 -0.019955 -0.049078 13.090653 -14.207116 -28.343658 0.339956 4.069898 0.117457 7.353480 -0.023971 0.002823 
-3.683956 34.367558 -4.565740 1.875000 -0.126953 93.583961 30.654299 -9.707031 -4.669615 -37.646488 7.822266 8.847656 -8.603516 0.000000 0.000000 13.125000 5.468750 11.679687 1.992188 -2.001953 0.000341 -2.412109 -14.101563 77.497620 2.724609 -1.796875 0.029603 1.748047 -3.291016 0.058033 -2.001953 1.992188 0.000000 9.453125 4.492188 -35.868378 -4.404297 1.767578 0.048828 -1.787109 3.261719 0.048828 7.573458 13.092141 20.772181 -2.345438 -4.142156 0.073041 0.797134 -0.064497 -0.044782 13.284004 -14.205520 -27.920027 -0.127044 4.112181 0.101718 7.460915 -0.011452 -0.023895 
-3.607486 34.363724 -4.556446 1.826172 -0.146484 93.027306 30.654299 -9.707031 -4.669615 -37.558594 7.802735 9.102888 -8.603516 0.000000 0.000000 12.988280 5.419921 8.857422 1.992188 -2.001953 0.000341 -2.314453 -14.511717 84.560547 2.724609 -1.796875 0.029603 1.748047 -3.291016 0.058033 -2.001953 1.992188 0.000000 9.355727 3.623146 -39.140785 -4.511718 1.767578 0.048527 -1.787109 3.261719 0.048828 7.859819 13.045498 21.386074 -2.435617 -4.136027 0.059796 0.779050 -0.044508 -0.047789 13.443263 -14.226845 -27.477644 -0.713108 4.082202 0.059160 7.578033 -0.038456 -0.001556 
-3.528666 34.366409 -4.551518 1.806641 -0.253906 92.421829 30.654299 -9.707031 -4.669615 -37.529301 7.744140 9.384767 -8.603516 0.000000 0.000000 12.832032 5.351563 6.036067 1.992188 -2.001953 0.000341 -1.894531 -15.000000 91.599030 2.744141 -1.796875 0.029603 1.748047 -3.291016 0.058033 -2.001953 1.992188 0.000000 9.404296 2.744141 -42.392578 -3.808594 1.767598 0.048528 -1.787109 3.261719 0.048828 8.029771 12.904652 22.050245 -2.423927 -4.130773 0.078393 0.769593 -0.040192 -0.046190 13.539335 -14.254820 -27.072428 -1.347704 4.115916 0.040701 7.626685 -0.053444 -0.036671 
-3.447944 34.370365 -4.550853 1.826172 -0.341795 91.728447 30.654299 -9.707031 -4.669615 -37.500004 7.666016 9.550781 -8.603516 0.000000 0.000000 12.675782 5.312500 3.340748 1.992188 -2.001953 0.000341 -1.093750 -15.371095 98.652344 2.744141 -1.796875 0.029603 1.748047 -3.291016 0.058033 -2.001953 1.992188 0.000000 9.785157 2.177735 -45.653927 -2.216797 1.767578 0.028996 -1.787109 3.261719 0.048828 8.149969 12.750888 22.717819 -2.298466 -4.134506 0.078893 0.712209 -0.018858 -0.038279 13.590191 -14.314625 -26.679651 -1.904565 4.115268 -0.059022 7.675770 -0.000937 -0.041026 
-3.365869 34.371002 -4.553624 1.806641 -0.439453 91.035156 30.654299 -9.707031 -4.669615 -37.451172 7.568360 9.462890 -8.603516 0.000000 0.000000 12.539062 5.302734 0.644531 1.992188 -2.001953 0.000341 -0.078125 -15.517577 105.712891 2.744141 -1.796875 0.029603 1.748047 -3.291016 0.058033 -2.001953 1.992188 0.000000 10.556642 2.119141 -48.905888 0.253906 1.767578 0.028996 -1.787109 3.261719 0.048828 8.226099 12.613170 23.445320 -2.014425 -4.130112 0.008919 0.602452 -0.042703 -0.057634 13.592515 -14.355062 -26.169796 -2.372741 4.105234 -0.043784 7.704772 -0.064614 -0.019655 
-3.283604 34.367558 -4.558334 1.777344 -0.458984 90.341721 30.654299 -9.707031 -4.669615 -37.314457 7.519532 9.101563 -8.603516 0.000000 0.000000 12.314453 5.292969 -2.207031 1.992188 -2.001953 0.000341 1.044922 -15.429686 112.751305 2.724609 -1.796875 0.029603 1.748047 -3.291016 0.058033 -2.001953 1.992188 0.000000 11.601563 2.431641 -52.157795 3.173828 1.767578 0.019230 -1.787109 3.261719 0.048828 8.357761 12.577906 24.180130 -1.664302 -4.124375 0.011981 0.399432 -0.083683 -0.041838 13.579685 -14.421572 -25.625061 -2.623355 4.101917 -0.052639 7.695104 -0.053254 -0.016205 
-3.202639 34.363091 -4.563020 1.699219 -0.458984 89.648354 30.654299 -9.707031 -4.669615 -37.089848 7.451172 8.603517 -8.603516 0.000000 0.000000 12.070312 5.322265 -5.361329 1.992188 -2.001953 0.000341 2.138672 -15.234373 119.814453 2.724609 -1.796875 0.029603 1.748047 -3.291016 0.058033 -2.001953 1.992188 0.000000 12.617188 2.919922 -55.410156 5.869141 1.767578 0.009766 -1.787109 3.261719 0.048828 8.491747 12.604598 24.955338 -1.293298 -4.142911 -0.024707 0.179094 -0.045359 -0.017119 13.494593 -14.471779 -24.981056 -2.723437 4.105880 -0.079554 7.724576 -0.011691 -0.034105 
-3.123705 34.361809 -4.566518 1.601563 -0.537109 88.915932 30.654299 -9.707031 -4.669615 -37.001953 7.373047 7.999299 -8.603516 0.000000 0.000000 11.796876 5.449219 -8.739307 1.992188 -2.001953 0.000341 3.134766 -14.960937 126.852951 2.744141 -1.796875 0.029603 1.748047 -3.291016 0.058033 -2.001953 1.992188 0.000000 13.349610 3.320313 -58.690845 7.802735 1.767578 0.009464 -1.787109 3.261719 0.048828 8.642292 12.626885 25.809269 -0.982275 -4.107327 -0.068353 -0.025335 -0.032076 -0.064399 13.249153 -14.559477 -24.223751 -2.704713 4.105699 -0.097635 7.666004 0.016986 -0.005012 
-3.045817 34.364491 -4.570323 1.542969 -0.751953 88.105469 30.654299 -9.707031 -4.669615 -37.070313 7.314454 7.413352 -8.603516 0.000000 0.000000 11.533202 5.585938 -12.197267 1.992188 -2.001953 0.000341 3.759766 -14.667970 133.916016 2.763672 -1.796875 0.039063 1.748047 -3.291016 0.058033 -2.001953 1.992188 0.000000 13.837892 3.574219 -61.962280 8.886718 1.767578 0.009766 -1.787109 3.261719 0.048828 8.693153 12.611949 26.643663 -0.776147 -4.130608 -0.063396 -0.221272 -0.015209 -0.068514 12.836124 -14.664416 -23.487289 -2.564974 4.102491 -0.087394 7.656251 0.009737 -0.027593 
-2.966347 34.368576 -4.578441 1.523438 -0.986328 87.148270 30.654299 -9.707031 -4.669615 -37.226563 7.255859 6.904296 -8.603516 0.000000 0.000000 11.318358 5.703125 -15.371093 1.992188 -2.001953 0.000341 3.964844 -14.296876 140.976563 2.744141 -1.796875 0.029603 1.748047 -3.291016 0.058033 -2.001953 1.992188 0.000000 14.150392 3.740235 -65.253273 9.306641 1.767578 -0.000301 -1.787109 3.261719 0.048828 8.798205 12.519423 27.526289 -0.640370 -4.133920 -0.073439 -0.456264 -0.032736 -0.054404 12.289286 -14.821210 -22.640215 -2.431556 4.125897 -0.087982 7.607417 -0.002385 -0.031290 
